<svg width="49" height="21" fill="none" xmlns="http://www.w3.org/2000/svg"><path d="M24.466 10.656c1.054 1.02 2.17 2.092 3.246 3.087a31.377 31.377 0 004.384 3.491 14.001 14.001 0 003.525 1.663c.467.14.946.24 1.43.299.446.058.894.087 1.343.086a8.462 8.462 0 002.273-.339 8.694 8.694 0 003.777-2.2 8.448 8.448 0 002.529-5.423 8.595 8.595 0 00-.24-2.81 8.357 8.357 0 00-1.515-3.086 8.832 8.832 0 00-2.389-2.137 8.701 8.701 0 00-2.594-1.052c-.405-.086-.814-.15-1.226-.192a7.613 7.613 0 00-1.774.018 10.447 10.447 0 00-3.162.913 20.395 20.395 0 00-4.3 2.786c-1.22.993-4.73 4.334-5.307 4.896" stroke="#F0380F" stroke-width="3"/><path d="M8.177 2.39a8.82 8.82 0 00-3.23 1.804 8.705 8.705 0 00-2.19 2.96c-.24.54-.43 1.1-.57 1.672-.1.45-.157.908-.174 1.369a8.48 8.48 0 001.208 4.858 8.672 8.672 0 004.137 3.555c.65.268 1.33.462 2.025.578.645.11 1.302.14 1.954.09 1.387-.117 2.737-.5 3.975-1.127A17.76 17.76 0 0018 16.492c1.04-.768 2.022-1.606 2.982-2.47 1.146-1.033 3.198-3.097 3.485-3.366-.227-.231-2.883-2.884-4.126-3.969a28.284 28.284 0 00-3.433-2.63 15.223 15.223 0 00-3.706-1.71 8.965 8.965 0 00-5.024.043v0z" stroke="#F0380F" stroke-width="3"/></svg>