<svg width="38" height="45" fill="none" xmlns="http://www.w3.org/2000/svg"><path d="M18.997 0c-4.349 0-7.91 3.618-7.91 8.036v4.156L2.716 3.686a1.581 1.581 0 00-1.133-.487c-.315 0-.623.096-.884.274a1.602 1.602 0 00-.582.729A1.631 1.631 0 00.48 5.958l10.609 10.78V22.5c0 4.419 3.56 8.036 7.909 8.036 1.605 0 3.1-.5 4.35-1.344l2.87 2.917c-2.053 1.54-4.541 2.445-7.22 2.445-6.953 0-12.655-6.059-12.655-13.66a1.63 1.63 0 00-.464-1.16 1.581 1.581 0 00-1.142-.47 1.57 1.57 0 00-1.11.488 1.621 1.621 0 00-.447 1.141c0 8.687 6.223 15.939 14.236 16.79v4.103h-3.164a1.56 1.56 0 00-1.133.462 1.608 1.608 0 00-.47 1.145 1.63 1.63 0 00.47 1.144 1.58 1.58 0 001.133.463h9.491a1.559 1.559 0 001.133-.463 1.608 1.608 0 00.472-1.144 1.63 1.63 0 00-.472-1.145 1.58 1.58 0 00-1.133-.462H20.58v-4.103c2.944-.313 5.637-1.504 7.878-3.299l6.821 6.93a1.58 1.58 0 001.125.493 1.56 1.56 0 001.134-.47A1.609 1.609 0 0038 40.185a1.63 1.63 0 00-.485-1.143l-6.778-6.887c2.528-2.998 4.078-6.947 4.078-11.262a1.63 1.63 0 00-.455-1.151 1.581 1.581 0 00-1.127-.48 1.56 1.56 0 00-1.126.48 1.61 1.61 0 00-.456 1.15c0 3.467-1.193 6.604-3.142 9l-2.925-2.973a8.06 8.06 0 001.322-4.42V8.037c0-4.418-3.56-8.036-7.91-8.036zm0 3.215c2.637 0 4.745 2.142 4.745 4.821V22.5c0 .747-.176 1.444-.47 2.072l-9.02-9.165v-7.37c0-2.68 2.108-4.822 4.745-4.822zm-4.745 16.737l6.784 6.893a4.676 4.676 0 01-2.04.477c-2.636 0-4.744-2.143-4.744-4.822v-2.548z" fill="#F0380F"/></svg>