<svg width="49" height="21" viewBox="0 0 49 21" fill="none" xmlns="http://www.w3.org/2000/svg">
<path d="M24.4663 10.6563C25.5198 11.6759 26.6359 12.7482 27.7124 13.7435C29.0651 15.0344 30.5322 16.2027 32.096 17.2344C33.1862 17.9494 34.3728 18.5089 35.6208 18.8966C36.0884 19.0361 36.5672 19.1362 37.0519 19.1959C37.4968 19.2538 37.9451 19.2827 38.3939 19.2824C39.1639 19.2732 39.9288 19.159 40.6673 18.9431C42.0961 18.5416 43.3967 17.7839 44.4445 16.7426C45.9235 15.2977 46.8219 13.3707 46.9728 11.3199C47.0481 10.3764 46.967 9.42701 46.7327 8.50934C46.4478 7.3888 45.9321 6.3385 45.2179 5.42424C44.5603 4.57348 43.7508 3.84907 42.8293 3.28687C42.0281 2.79915 41.1518 2.444 40.2349 2.23543C39.8302 2.14901 39.4208 2.08494 39.0089 2.0435C38.4191 1.98017 37.8237 1.98601 37.2353 2.06089C36.1389 2.19647 35.0714 2.50467 34.0734 2.9738C32.527 3.71923 31.0822 4.65545 29.7736 5.76009C28.5532 6.7534 25.0424 10.094 24.4664 10.6563" stroke="#F0380F" stroke-width="3"/>
<path d="M8.17692 2.38964C6.98299 2.7571 5.88201 3.3722 4.94742 4.19389C4.01283 5.01559 3.26612 6.02499 2.75711 7.15476C2.51771 7.69415 2.32672 8.25333 2.18635 8.82582C2.08771 9.27616 2.02983 9.7343 2.0134 10.1948C1.91748 11.897 2.33805 13.5887 3.22111 15.0528C4.17697 16.6477 5.628 17.8946 7.35817 18.6078C8.00865 18.8763 8.68806 19.0703 9.38314 19.186C10.0282 19.2954 10.6845 19.3255 11.3371 19.2757C12.7236 19.159 14.0738 18.7762 15.3122 18.1486C16.2559 17.6768 17.1551 17.1224 17.9989 16.4921C19.0394 15.7238 20.0208 14.8865 20.9807 14.0218C22.1269 12.9893 24.1788 10.9253 24.4662 10.6565C24.2388 10.4249 21.5828 7.7723 20.3402 6.68734C19.2656 5.72466 18.1178 4.84502 16.907 4.05617C15.7556 3.32342 14.5091 2.74847 13.2015 2.34704C11.5575 1.88197 9.81262 1.89676 8.17692 2.38964V2.38964Z" stroke="#F0380F" stroke-width="3"/>
</svg>
