<svg width="38" height="45" viewBox="0 0 38 45" fill="none" xmlns="http://www.w3.org/2000/svg">
<path d="M18.9969 0.000594682C14.6484 0.000594682 11.0879 3.6181 11.0879 8.03628V12.1922L2.7154 3.6856C2.56799 3.53165 2.39171 3.40927 2.19696 3.32571C2.00222 3.24214 1.79296 3.19908 1.58156 3.19907C1.26689 3.19915 0.959384 3.29458 0.698369 3.47316C0.437353 3.65173 0.234685 3.90534 0.116275 4.20155C-0.00213589 4.49777 -0.0309082 4.82313 0.0336366 5.13605C0.0981814 5.44897 0.253111 5.73522 0.478616 5.9582L11.0878 16.7373V22.5003C11.0878 26.9185 14.6483 30.536 18.9968 30.536C20.6016 30.536 22.0961 30.0362 23.3468 29.1925L26.217 32.1087C24.1643 33.6491 21.6758 34.5539 18.9968 34.5539C12.0438 34.5539 6.34237 28.4953 6.34237 20.8933C6.34527 20.6782 6.30568 20.4648 6.22594 20.2656C6.1462 20.0664 6.02792 19.8855 5.87812 19.7336C5.72833 19.5817 5.55005 19.4619 5.35385 19.3812C5.15765 19.3006 4.94751 19.2608 4.73589 19.2641C4.3169 19.2708 3.91762 19.446 3.6257 19.7515C3.33377 20.0569 3.17304 20.4676 3.17879 20.8933C3.17879 29.5798 9.40209 36.8316 17.415 37.683V41.7856H14.2514C14.0418 41.7826 13.8337 41.8219 13.6392 41.9013C13.4447 41.9807 13.2677 42.0986 13.1184 42.2482C12.9691 42.3977 12.8506 42.5759 12.7697 42.7724C12.6888 42.9689 12.6471 43.1797 12.6471 43.3927C12.6471 43.6057 12.6888 43.8166 12.7697 44.013C12.8506 44.2095 12.9691 44.3877 13.1184 44.5372C13.2677 44.6868 13.4447 44.8047 13.6392 44.8841C13.8337 44.9635 14.0418 45.0029 14.2514 44.9998H23.7423C23.9519 45.0029 24.16 44.9635 24.3545 44.8841C24.549 44.8047 24.726 44.6868 24.8753 44.5372C25.0246 44.3877 25.1431 44.2095 25.224 44.013C25.3049 43.8166 25.3466 43.6057 25.3466 43.3927C25.3466 43.1797 25.3049 42.9689 25.224 42.7724C25.1431 42.5759 25.0246 42.3977 24.8753 42.2482C24.726 42.0986 24.549 41.9807 24.3545 41.9013C24.16 41.8219 23.9519 41.7826 23.7423 41.7856H20.5787V37.683C23.5233 37.37 26.2156 36.1794 28.4568 34.3841L35.2784 41.3148C35.4242 41.4687 35.5988 41.5916 35.7919 41.6761C35.985 41.7607 36.1927 41.8053 36.403 41.8073C36.6133 41.8093 36.8218 41.7688 37.0165 41.6879C37.2111 41.6071 37.388 41.4877 37.5367 41.3366C37.6853 41.1856 37.8029 41.0059 37.8824 40.8081C37.962 40.6104 38.0019 40.3985 37.9999 40.1848C37.9979 39.9712 37.954 39.7601 37.8708 39.5639C37.7876 39.3677 37.6667 39.1904 37.5152 39.0422L30.7369 32.1553C33.2652 29.1565 34.8149 25.2083 34.8149 20.8928C34.8179 20.6798 34.7791 20.4684 34.701 20.2708C34.6228 20.0731 34.5068 19.8933 34.3596 19.7416C34.2124 19.5899 34.037 19.4695 33.8437 19.3873C33.6503 19.3051 33.4427 19.2628 33.2331 19.2628C33.0235 19.2628 32.8159 19.3051 32.6225 19.3873C32.4292 19.4695 32.2538 19.5899 32.1066 19.7416C31.9594 19.8933 31.8434 20.0731 31.7652 20.2708C31.6871 20.4684 31.6483 20.6798 31.6513 20.8928C31.6513 24.3589 30.458 27.4957 28.5094 29.8921L25.5836 26.9195C26.414 25.6488 26.9059 24.1304 26.9059 22.4999V8.03569C26.9059 3.61751 23.3455 0 18.9969 0L18.9969 0.000594682ZM18.9969 3.21487C21.6336 3.21487 23.7423 5.35734 23.7423 8.03628V22.5005C23.7423 23.247 23.566 23.9438 23.2727 24.5723L14.2515 15.4066V8.03644C14.2515 5.3575 16.3602 3.21503 18.997 3.21503L18.9969 3.21487ZM14.2515 19.9516L21.036 26.8448C20.4175 27.1427 19.7317 27.3219 18.9969 27.3219C16.3602 27.3219 14.2515 25.1794 14.2515 22.5005V19.9517V19.9516Z" fill="#F0380F"/>
</svg>
